<?xml version="1.0" encoding="UTF-8" standalone="no"?>
<!-- Created with Inkscape (http://www.inkscape.org/) -->

<svg
   width="40px"
   height="40px"
   viewBox="0 0 40 40"
   version="1.1"
   id="SVGRoot"
   sodipodi:docname="controlIconsMediaplayer.svg"
   inkscape:version="1.1.2 (0a00cf5339, 2022-02-04)"
   xmlns:inkscape="http://www.inkscape.org/namespaces/inkscape"
   xmlns:sodipodi="http://sodipodi.sourceforge.net/DTD/sodipodi-0.dtd"
   xmlns="http://www.w3.org/2000/svg"
   xmlns:svg="http://www.w3.org/2000/svg">
  <sodipodi:namedview
     id="namedview1063"
     pagecolor="#ffffff"
     bordercolor="#666666"
     borderopacity="1.0"
     inkscape:pageshadow="2"
     inkscape:pageopacity="0.0"
     inkscape:pagecheckerboard="0"
     inkscape:document-units="px"
     showgrid="false"
     inkscape:zoom="5.1241863"
     inkscape:cx="7.8061174"
     inkscape:cy="21.369246"
     inkscape:window-width="1920"
     inkscape:window-height="1014"
     inkscape:window-x="0"
     inkscape:window-y="0"
     inkscape:window-maximized="1"
     inkscape:current-layer="layer1" />
  <defs
     id="defs1058" />
  <g
     inkscape:label="Ebene 1"
     inkscape:groupmode="layer"
     id="layer1">
    <path
       style="fill:#6887a3;fill-opacity:1;stroke:none;stroke-width:0;stroke-opacity:1"
       d="m 21.666065,34.635186 c -0.843,-0.235118 -1.59327,-1.08856 -1.81645,-2.066262 -0.44785,-1.961827 1.00099,-3.853538 2.73257,-3.567837 0.19235,0.03174 0.36978,0.07048 0.39427,0.08613 0.0244,0.01563 0.0508,-1.372722 0.0586,-3.085226 l 0.014,-3.113646 3.66066,-2.017388 c 2.01336,-1.109566 3.96027,-2.181698 4.32651,-2.382518 l 0.66587,-0.365127 -0.0168,6.51537 c -0.015,5.774492 -0.0266,6.548053 -0.10339,6.802801 -0.39916,1.326199 -1.55548,2.176238 -2.70117,1.985677 -1.77131,-0.294629 -2.70813,-2.504209 -1.82495,-4.304317 0.22582,-0.460256 0.67662,-0.917584 1.14813,-1.164772 0.38915,-0.203997 0.44263,-0.216853 0.91036,-0.218748 0.2733,-0.0011 0.57623,0.01889 0.67316,0.04444 0.17624,0.04646 0.17624,0.04646 0.17624,-2.312472 0,-2.358932 0,-2.358932 -0.122,-2.293987 -0.0672,0.03572 -1.23708,0.681288 -2.59996,1.434598 l -2.47792,1.369658 -0.0203,3.23038 c -0.0221,3.528432 -0.008,3.367799 -0.35475,4.07538 -0.52545,1.072745 -1.67267,1.640693 -2.72259,1.347869 z M 8.834825,27.967285 c -0.1558,-0.07493 -0.3334,-0.21532 -0.40673,-0.321524 -0.13019,-0.18852 -0.13019,-0.18852 -0.13019,-8.936309 0,-8.7477902 0,-8.7477902 0.11186,-8.9026892 0.0616,-0.08519 0.20416,-0.231974 0.31687,-0.326178 0.20487,-0.171278 0.20487,-0.171278 9.97982,-0.18588 9.77495,-0.0146 9.77495,-0.0146 9.9601,0.112478 0.10183,0.0699 0.24003,0.239338 0.30714,0.376545 0.12203,0.2494672 0.12203,0.2494672 0.12203,3.8168712 v 3.567403 l -2.60261,1.433815 -2.60264,1.433816 h -5.20678 -5.20676 v 2.688582 2.688583 h 3.90471 3.90468 v 1.344293 1.34429 l -6.08753,-5.61e-4 c -6.08754,-5.59e-4 -6.08754,-5.59e-4 -6.3641,-0.133546 z m 2.90682,-3.450682 c 0,-0.896194 0,-0.896194 -0.86771,-0.896194 -0.86772,0 -0.86772,0 -0.86772,0.896194 0,0.896194 0,0.896194 0.86772,0.896194 0.86771,0 0.86771,0 0.86771,-0.896194 z m 0,-3.584777 c 0,-0.896194 0,-0.896194 -0.86771,-0.896194 -0.86772,0 -0.86772,0 -0.86772,0.896194 0,0.896194 0,0.896194 0.86772,0.896194 0.86771,0 0.86771,0 0.86771,-0.896194 z m 0,-4.480972 c 0,-0.896192 0,-0.896192 -0.86771,-0.896192 -0.86772,0 -0.86772,0 -0.86772,0.896192 0,0.896195 0,0.896195 0.86772,0.896195 0.86771,0 0.86771,0 0.86771,-0.896195 z m 12.14794,-1.792388 v -2.688582 h -5.20627 -5.20626 v 2.688582 2.688583 h 5.20626 5.20627 z m 3.47085,1.792388 c 0,-0.896192 0,-0.896192 -0.86772,-0.896192 -0.86771,0 -0.86771,0 -0.86771,0.896192 0,0.896195 0,0.896195 0.86771,0.896195 0.86772,0 0.86772,0 0.86772,-0.896195 z m -15.61879,-3.584776 c 0,-0.896194 0,-0.896194 -0.86771,-0.896194 -0.86772,0 -0.86772,0 -0.86772,0.896194 0,0.896194 0,0.896194 0.86772,0.896194 0.86771,0 0.86771,0 0.86771,-0.896194 z m 15.61879,0 c 0,-0.896194 0,-0.896194 -0.86772,-0.896194 -0.86771,0 -0.86771,0 -0.86771,0.896194 0,0.896194 0,0.896194 0.86771,0.896194 0.86772,0 0.86772,0 0.86772,-0.896194 z"
       id="path496-3" />
  </g>
</svg>
